<mxfile modified="2020-10-19T13:31:12.466Z" host="app.diagrams.net" agent="5.0 (Macintosh)" etag="TSFnjTaoOWsDBHeVvbm9" version="13.8.0" type="github">
  <diagram id="eIo0H9kK7ql945uVP1NC" name="Page-1">
    <mxGraphModel dx="946" dy="549" grid="1" gridSize="10" guides="1" tooltips="1" connect="1" arrows="1" fold="1" page="1" pageScale="1" pageWidth="827" pageHeight="1169" math="0" shadow="0">
      <root>
        <mxCell id="0" />
        <mxCell id="ejlwgzSSQwUT3n1aease-23" parent="0" />
        <mxCell id="ejlwgzSSQwUT3n1aease-29" value="&lt;b&gt;基础设施&lt;/b&gt;" style="rounded=1;whiteSpace=wrap;html=1;dashed=1;align=center;verticalAlign=top;horizontal=1;labelBorderColor=none;" vertex="1" parent="ejlwgzSSQwUT3n1aease-23">
          <mxGeometry x="154" y="415" width="606" height="170" as="geometry" />
        </mxCell>
        <mxCell id="ejlwgzSSQwUT3n1aease-33" value="云主机 " style="rounded=0;whiteSpace=wrap;html=1;dashed=1;align=center;fontStyle=1;fillColor=#dae8fc;strokeColor=#6c8ebf;" vertex="1" parent="ejlwgzSSQwUT3n1aease-23">
          <mxGeometry x="194" y="465" width="120" height="60" as="geometry" />
        </mxCell>
        <mxCell id="ejlwgzSSQwUT3n1aease-34" value="物理机" style="rounded=0;whiteSpace=wrap;html=1;dashed=1;align=center;fontStyle=1;fillColor=#dae8fc;strokeColor=#6c8ebf;" vertex="1" parent="ejlwgzSSQwUT3n1aease-23">
          <mxGeometry x="344" y="465" width="120" height="60" as="geometry" />
        </mxCell>
        <mxCell id="ejlwgzSSQwUT3n1aease-35" value="网络设备" style="rounded=0;whiteSpace=wrap;html=1;dashed=1;align=center;fontStyle=1;fillColor=#dae8fc;strokeColor=#6c8ebf;" vertex="1" parent="ejlwgzSSQwUT3n1aease-23">
          <mxGeometry x="480" y="465" width="120" height="60" as="geometry" />
        </mxCell>
        <mxCell id="ejlwgzSSQwUT3n1aease-36" value="负载均衡" style="rounded=0;whiteSpace=wrap;html=1;dashed=1;align=center;fontStyle=1;fillColor=#dae8fc;strokeColor=#6c8ebf;" vertex="1" parent="ejlwgzSSQwUT3n1aease-23">
          <mxGeometry x="620" y="465" width="120" height="60" as="geometry" />
        </mxCell>
      </root>
    </mxGraphModel>
  </diagram>
</mxfile>
